HIERARCHY
ROOT Hips
{
	OFFSET 0.000000 0.000000 0.000000
	CHANNELS 6 Xposition Yposition Zposition Zrotation Yrotation Xrotation 
	JOINT LHipJoint
	{
		OFFSET 0.000000 0.000000 0.000000
		CHANNELS 3 Zrotation Yrotation Xrotation
		JOINT LeftUpLeg
		{
			OFFSET 1.363060 -1.794630 0.839290
			CHANNELS 3 Zrotation Yrotation Xrotation
			JOINT LeftLeg
			{
				OFFSET 2.448110 -6.726130 0.000000
				CHANNELS 3 Zrotation Yrotation Xrotation
				JOINT LeftFoot
				{
					OFFSET 2.562200 -7.039590 0.000000
					CHANNELS 3 Zrotation Yrotation Xrotation
					JOINT LeftToeBase
					{
						OFFSET 0.157640 -0.433110 2.322550
						CHANNELS 3 Zrotation Yrotation Xrotation
						End Site
						{
							OFFSET 0.000000 0.000000 0.000000
						}
					}
				}
			}
		}
	}
	JOINT RHipJoint
	{
		OFFSET 0.000000 0.000000 0.000000
		CHANNELS 3 Zrotation Yrotation Xrotation
		JOINT RightUpLeg
		{
			OFFSET -1.305520 -1.794630 0.839290
			CHANNELS 3 Zrotation Yrotation Xrotation
			JOINT RightLeg
			{
				OFFSET -2.542530 -6.985550 0.000000
				CHANNELS 3 Zrotation Yrotation Xrotation
				JOINT RightFoot
				{
					OFFSET -2.568260 -7.056230 0.000000
					CHANNELS 3 Zrotation Yrotation Xrotation
					JOINT RightToeBase
					{
						OFFSET -0.164730 -0.452590 2.363150
						CHANNELS 3 Zrotation Yrotation Xrotation
						End Site
						{
							OFFSET 0.000000 0.000000 0.000000
						}
					}
				}
			}
		}
	}
	JOINT LowerBack
	{
		OFFSET 0.000000 0.000000 0.000000
		CHANNELS 3 Zrotation Yrotation Xrotation
		JOINT Spine
		{
			OFFSET 0.028270 2.035590 -0.193380
			CHANNELS 3 Zrotation Yrotation Xrotation
			JOINT Spine1
			{
				OFFSET 0.056720 2.048850 -0.042750
				CHANNELS 3 Zrotation Yrotation Xrotation
				JOINT Neck
				{
					OFFSET 0.000000 0.000000 0.000000
					CHANNELS 3 Zrotation Yrotation Xrotation
					JOINT Neck1
					{
						OFFSET -0.054170 1.746240 0.172020
						CHANNELS 3 Zrotation Yrotation Xrotation
						JOINT Head
						{
							OFFSET 0.104070 1.761360 -0.123970
							CHANNELS 3 Zrotation Yrotation Xrotation
							End Site
							{
								OFFSET 0.000000 0.000000 0.000000
							}
						}
					}
				}
				JOINT LeftShoulder
				{
					OFFSET 0.000000 0.000000 0.000000
					CHANNELS 3 Zrotation Yrotation Xrotation
					JOINT LeftArm
					{
						OFFSET 3.362410 1.200890 -0.311210
						CHANNELS 3 Zrotation Yrotation Xrotation
						JOINT LeftForeArm
						{
							OFFSET 4.983000 -0.000000 -0.000000
							CHANNELS 3 Zrotation Yrotation Xrotation
							JOINT LeftHand
							{
								OFFSET 3.483560 -0.000000 -0.000000
								CHANNELS 3 Zrotation Yrotation Xrotation
								JOINT LeftFingerBase
								{
									OFFSET 0.000000 0.000000 0.000000
									CHANNELS 3 Zrotation Yrotation Xrotation
									JOINT LeftHandIndex1
									{
										OFFSET 0.715260 -0.000000 -0.000000
										CHANNELS 3 Zrotation Yrotation Xrotation
										End Site
										{
											OFFSET 0.000000 0.000000 0.000000
										}
									}
								}
								JOINT LThumb
								{
									OFFSET 0.000000 0.000000 0.000000
									CHANNELS 3 Zrotation Yrotation Xrotation
									End Site
									{
										OFFSET 0.000000 0.000000 0.000000
									}
								}
							}
						}
					}
				}
				JOINT RightShoulder
				{
					OFFSET 0.000000 0.000000 0.000000
					CHANNELS 3 Zrotation Yrotation Xrotation
					JOINT RightArm
					{
						OFFSET -3.136600 1.374050 -0.404650
						CHANNELS 3 Zrotation Yrotation Xrotation
						JOINT RightForeArm
						{
							OFFSET -5.241900 -0.000000 -0.000000
							CHANNELS 3 Zrotation Yrotation Xrotation
							JOINT RightHand
							{
								OFFSET -3.444170 -0.000000 -0.000000
								CHANNELS 3 Zrotation Yrotation Xrotation
								JOINT RightFingerBase
								{
									OFFSET 0.000000 0.000000 0.000000
									CHANNELS 3 Zrotation Yrotation Xrotation
									JOINT RightHandIndex1
									{
										OFFSET -0.622530 -0.000000 -0.000000
										CHANNELS 3 Zrotation Yrotation Xrotation
										End Site
										{
											OFFSET 0.000000 0.000000 0.000000
										}
									}
								}
								JOINT RThumb
								{
									OFFSET 0.000000 0.000000 0.000000
									CHANNELS 3 Zrotation Yrotation Xrotation
									End Site
									{
										OFFSET 0.000000 0.000000 0.000000
									}
								}
							}
						}
					}
				}
			}
		}
	}
}
MOTION
Frames: 4
Frame Time: 0.008333
1.901711 16.197994 10.978142 177.417881 -0.791860 -155.359215 8.912006 1.118780 -2.147586 -27.459862 -12.382572 -26.524150 7.769895 18.717887 55.563932 0.101161 14.668444 -2.029505 0.952900 -6.216200 -17.413100 -14.060716 -2.367166 -1.539200 34.200916 18.174457 -22.112741 -7.263695 -18.776963 55.783158 -1.321069 -14.405666 -16.169556 -3.780200 11.862100 -35.245800 -0.368360 0.377642 9.860762 -0.098748 0.262174 -3.344253 -1.754503 0.027738 5.716220 -1.421296 -2.464473 -27.306293 6.486259 -4.089556 10.083010 -0.769200 -1.202100 20.037800 11.499849 2.936203 0.128490 -84.977396 -20.283860 38.210311 67.601494 -60.203533 -36.405338 1.985396 0.419658 35.577643 31.572309 15.207505 7.825400 -7.125000 0.000000 0.000000 2.646500 45.661800 0.043300 -11.032838 -0.260628 0.118032 83.987387 16.900317 40.607533 -105.109414 56.976465 -63.747078 1.158966 -1.888975 2.499069 -8.068452 -14.157018 1.998000 7.125000 0.000000 0.000000 15.954300 -41.840900 1.279400 
1.915133 16.491362 10.590086 177.350199 -1.163867 -156.172701 8.946415 1.204996 -2.099426 -27.717995 -11.487849 -23.860949 7.013221 17.929507 52.741208 0.383596 11.176452 2.037505 0.820400 -5.779300 -16.145500 -14.178415 -2.552573 -1.868045 35.048591 16.450406 -18.626759 -6.280363 -17.526037 52.108563 -1.245758 -12.721962 -11.308269 -3.656300 11.688400 -34.638400 -0.453994 0.242513 8.429453 -0.055486 0.056432 -3.368317 -1.577921 -0.091218 6.301744 -1.493934 -2.323698 -26.579534 6.415051 -4.238241 10.976027 -0.830600 -1.304600 20.532400 11.438633 3.009740 0.135062 -84.692364 -19.888595 38.046155 70.650142 -60.675610 -38.800398 2.070425 0.452284 36.229219 32.386508 16.150775 8.551200 -7.125000 0.000000 0.000000 3.329000 46.735100 0.142700 -10.975662 -0.338371 0.109164 83.537281 15.931126 41.494931 -106.682399 56.611061 -65.363131 1.109775 -1.853482 3.692166 -7.859987 -14.035400 1.940100 7.125000 0.000000 0.000000 16.130400 -41.762100 1.326700 
1.928026 16.797199 10.200760 177.222583 -1.481952 -157.024457 8.988704 1.289076 -2.044041 -27.984350 -10.845998 -21.365400 6.387295 17.194481 50.257892 0.630759 8.200221 6.577294 0.598400 -4.952200 -13.772200 -14.290750 -2.725925 -2.201091 35.636828 14.896120 -15.364046 -5.447060 -16.300912 48.723088 -1.214299 -11.268266 -5.890708 -3.367100 11.266900 -33.185200 -0.625848 0.111556 7.189707 -0.022115 -0.148543 -3.402552 -1.395269 -0.211929 6.757432 -1.627334 -2.189690 -25.841418 6.380701 -4.429215 11.924279 -0.856600 -1.439800 21.131200 11.365743 3.090485 0.131540 -84.413582 -19.336411 37.954550 73.713929 -61.024365 -41.225040 2.155761 0.484053 36.789995 33.225815 17.015156 9.268800 -7.125000 0.000000 0.000000 4.055300 47.734300 0.274000 -10.928813 -0.387386 0.104529 83.099862 14.863739 42.189038 -108.137700 56.272637 -66.872591 1.060014 -1.812266 4.455281 -7.691151 -13.793939 1.868800 7.125000 0.000000 0.000000 16.251000 -41.565400 1.418500 
1.939545 17.111914 9.816402 177.050966 -1.750067 -157.870783 9.037955 1.362160 -1.985603 -28.272674 -10.514288 -19.127869 5.921690 16.578235 48.290510 0.892466 5.949239 11.100258 0.412200 -4.121200 -11.417800 -14.398893 -2.873501 -2.514693 36.003325 13.623003 -12.459271 -4.782815 -15.187668 45.815797 -1.295234 -10.377431 -0.006876 -2.989900 10.678700 -31.203800 -0.837809 -0.002701 6.155006 -0.002096 -0.329171 -3.445739 -1.235797 -0.318580 7.072993 -1.789712 -2.055865 -25.119652 6.373435 -4.663004 12.880655 -0.860900 -1.603900 21.810700 11.284828 3.165636 0.114420 -84.049289 -18.721642 38.463482 76.672243 -61.220512 -43.572953 2.185117 0.531906 36.433057 33.202348 17.319355 9.405800 -7.125000 0.000000 0.000000 4.008500 48.019400 0.299100 -10.886033 -0.402853 0.101478 82.673702 13.735292 42.629033 -109.810109 55.869001 -68.646678 1.001092 -1.759285 4.707933 -7.579209 -13.397374 1.781800 7.125000 0.000000 0.000000 16.302200 -41.221600 1.565900 
